<?xml version="1.0" encoding="UTF-8" standalone="no"?>
<!DOCTYPE svg PUBLIC "-//W3C//DTD SVG 1.1//EN" "http://www.w3.org/Graphics/SVG/1.1/DTD/svg11.dtd">
<svg width="100%" height="100%" viewBox="0 0 30 32" version="1.1" xmlns="http://www.w3.org/2000/svg" xmlns:xlink="http://www.w3.org/1999/xlink" xml:space="preserve" style="fill-rule:evenodd;clip-rule:evenodd;stroke-linejoin:round;stroke-miterlimit:1.41421;">
    <g transform="matrix(1,0,0,1,-8207.52,-1708.87)">
        <g transform="matrix(5.29781,-2.40913e-18,-3.40698e-17,2.68593,7121.25,584.168)">
            <g transform="matrix(0.0467653,4.19459e-20,5.93197e-19,0.0922412,207.869,424.694)">
                <g transform="matrix(1,0,0,1,-60.462,-64.5802)">
                    <clipPath id="_clip1">
                        <rect x="0" y="0" width="120.924" height="129.16"/>
                    </clipPath>
                    <g clip-path="url(#_clip1)">
                        <path id="path16" d="M89.178,84.522C104.465,76.155 116.14,69.764 117.202,69.182C120.37,67.448 123.689,63.023 117.202,59.486C115.117,58.347 103.756,52.152 89.16,44.189L69.085,64.418L89.178,84.522Z" style="fill:url(#_Linear2);fill-rule:nonzero;"/>
                        <path id="path23" d="M69.084,64.418L4.876,129.116C6.326,129.3 8.07,128.916 10.076,127.818C14.229,125.545 58.829,101.132 89.178,84.52L69.084,64.418L69.084,64.418Z" style="fill:url(#_Linear3);fill-rule:nonzero;"/>
                        <path id="path30" d="M69.084,64.418L89.159,44.189C89.159,44.189 14.543,3.48 10.076,1.043C8.359,0.106 6.487,-0.221 4.83,0.148L69.084,64.418Z" style="fill:url(#_Linear4);fill-rule:nonzero;"/>
                        <path id="path37" d="M69.084,64.418L4.829,0.149C2.175,0.741 0,3.038 0,7.655C0,15.155 0,115.108 0,121.405C0,125.753 1.711,128.811 4.875,129.116L69.084,64.418Z" style="fill:url(#_Linear5);fill-rule:nonzero;"/>
                    </g>
                </g>
            </g>
        </g>
    </g>
    <defs>
        <linearGradient id="_Linear2" x1="0" y1="0" x2="1" y2="0" gradientUnits="userSpaceOnUse" gradientTransform="matrix(-16.3188,-32.0275,32.0275,-16.3188,102.163,77.9062)"><stop offset="0%" style="stop-color:rgb(252,208,143);stop-opacity:1"/><stop offset="100%" style="stop-color:rgb(247,150,115);stop-opacity:1"/></linearGradient>
        <linearGradient id="_Linear3" x1="0" y1="0" x2="1" y2="0" gradientUnits="userSpaceOnUse" gradientTransform="matrix(-62.1351,66.6317,-66.6317,-62.1351,78.4349,73.1377)"><stop offset="0%" style="stop-color:rgb(231,64,71);stop-opacity:1"/><stop offset="100%" style="stop-color:rgb(127,80,160);stop-opacity:1"/></linearGradient>
        <linearGradient id="_Linear4" x1="0" y1="0" x2="1" y2="0" gradientUnits="userSpaceOnUse" gradientTransform="matrix(-63.1209,-65.3637,65.3637,-63.1209,78.7654,55.0693)"><stop offset="0%" style="stop-color:rgb(230,255,171);stop-opacity:1"/><stop offset="100%" style="stop-color:rgb(71,190,188);stop-opacity:1"/></linearGradient>
        <linearGradient id="_Linear5" x1="0" y1="0" x2="1" y2="0" gradientUnits="userSpaceOnUse" gradientTransform="matrix(7.89691e-15,-128.966,128.966,7.89691e-15,34.5428,129.116)"><stop offset="0%" style="stop-color:rgb(132,233,219);stop-opacity:1"/><stop offset="100%" style="stop-color:rgb(25,116,145);stop-opacity:1"/></linearGradient>
    </defs>
</svg>
