<?xml version="1.0" encoding="UTF-8" standalone="no"?>
<!DOCTYPE svg PUBLIC "-//W3C//DTD SVG 1.1//EN" "http://www.w3.org/Graphics/SVG/1.1/DTD/svg11.dtd">
<svg width="100%" height="100%" viewBox="0 0 316 61" version="1.1" xmlns="http://www.w3.org/2000/svg" xmlns:xlink="http://www.w3.org/1999/xlink" xml:space="preserve" style="fill-rule:evenodd;clip-rule:evenodd;stroke-linejoin:round;stroke-miterlimit:1.41421;">
    <g transform="matrix(1,0,0,1,-61.7888,-23.464)">
        <path d="M377.789,84.464L61.789,84.464L61.789,23.464L377.789,23.464L377.789,84.464ZM62.789,24.464L62.789,83.464L376.789,83.464L376.789,24.464L62.789,24.464Z" style="fill:white;"/>
        <g transform="matrix(1,0,0,1,93.9237,62.6009)">
            <g>
                <g>
                    <path d="M5.994,-7.506L10.494,-7.506L10.494,-3.006C10.494,-1.998 10.176,-1.245 9.54,-0.747C8.904,-0.249 8.226,0 7.506,0L4.5,0C3.684,0 2.979,-0.294 2.385,-0.882C1.791,-1.47 1.494,-2.178 1.494,-3.006L1.494,-10.494C1.494,-11.31 1.785,-12.015 2.367,-12.609C2.949,-13.203 3.66,-13.5 4.5,-13.5L7.506,-13.5C9.39,-13.5 10.386,-12.498 10.494,-10.494L9,-10.494C8.88,-11.502 8.382,-12.006 7.506,-12.006L5.994,-12.006C5.586,-12.006 5.235,-11.859 4.941,-11.565C4.647,-11.271 4.5,-10.914 4.5,-10.494L4.5,-3.006C4.5,-2.586 4.647,-2.229 4.941,-1.935C5.235,-1.641 5.586,-1.494 5.994,-1.494C6.954,-1.542 7.458,-2.046 7.506,-3.006L7.506,-5.994L5.994,-5.994L5.994,-7.506Z" style="fill:white;fill-rule:nonzero;"/>
                    <path d="M16.506,-10.494L19.512,-10.494C20.328,-10.494 21.03,-10.2 21.618,-9.612C22.206,-9.024 22.5,-8.322 22.5,-7.506L22.5,-3.006C22.5,-2.19 22.206,-1.485 21.618,-0.891C21.03,-0.297 20.328,0 19.512,0L16.506,0C15.69,0 14.985,-0.294 14.391,-0.882C13.797,-1.47 13.5,-2.178 13.5,-3.006L13.5,-7.506C13.5,-8.322 13.797,-9.024 14.391,-9.612C14.985,-10.2 15.69,-10.494 16.506,-10.494ZM16.506,-7.506L16.506,-3.006C16.506,-2.598 16.653,-2.244 16.947,-1.944C17.241,-1.644 17.592,-1.494 18,-1.494C18.42,-1.494 18.777,-1.644 19.071,-1.944C19.365,-2.244 19.512,-2.598 19.512,-3.006L19.512,-7.506C19.512,-7.914 19.365,-8.265 19.071,-8.559C18.777,-8.853 18.42,-9 18,-9C17.592,-9 17.241,-8.853 16.947,-8.559C16.653,-8.265 16.506,-7.914 16.506,-7.506Z" style="fill:white;fill-rule:nonzero;"/>
                    <path d="M31.518,-13.5L34.506,-13.5L34.506,-10.494L36.018,-10.494L36.018,-9L34.506,-9L34.506,-3.006C34.506,-2.514 34.668,-2.139 34.992,-1.881C35.316,-1.623 35.61,-1.494 35.874,-1.494L36.018,-1.494L36.018,0L34.506,0C33.69,0 32.988,-0.294 32.4,-0.882C31.812,-1.47 31.518,-2.178 31.518,-3.006L31.518,-9L30.006,-9L30.006,-10.494L31.518,-10.494L31.518,-13.5Z" style="fill:white;fill-rule:nonzero;"/>
                    <path d="M42.012,-10.494L45.018,-10.494C45.834,-10.494 46.536,-10.2 47.124,-9.612C47.712,-9.024 48.006,-8.322 48.006,-7.506L48.006,-3.006C48.006,-2.19 47.712,-1.485 47.124,-0.891C46.536,-0.297 45.834,0 45.018,0L42.012,0C41.196,0 40.491,-0.294 39.897,-0.882C39.303,-1.47 39.006,-2.178 39.006,-3.006L39.006,-7.506C39.006,-8.322 39.303,-9.024 39.897,-9.612C40.491,-10.2 41.196,-10.494 42.012,-10.494ZM42.012,-7.506L42.012,-3.006C42.012,-2.598 42.159,-2.244 42.453,-1.944C42.747,-1.644 43.098,-1.494 43.506,-1.494C43.926,-1.494 44.283,-1.644 44.577,-1.944C44.871,-2.244 45.018,-2.598 45.018,-3.006L45.018,-7.506C45.018,-7.914 44.871,-8.265 44.577,-8.559C44.283,-8.853 43.926,-9 43.506,-9C43.098,-9 42.747,-8.853 42.453,-8.559C42.159,-8.265 42.012,-7.914 42.012,-7.506Z" style="fill:white;fill-rule:nonzero;"/>
                    <path d="M58.518,0L55.512,0L55.512,-10.494L58.518,-10.494L58.518,-7.506C58.638,-8.502 58.947,-9.249 59.445,-9.747C59.943,-10.245 60.636,-10.494 61.524,-10.494L63.018,-10.494L63.018,-7.506L60.012,-7.506C59.604,-7.506 59.253,-7.359 58.959,-7.065C58.665,-6.771 58.518,-6.414 58.518,-5.994L58.518,0Z" style="fill:white;fill-rule:nonzero;"/>
                    <path d="M73.512,-4.5L67.518,-4.5L67.518,-3.006C67.518,-2.598 67.665,-2.244 67.959,-1.944C68.253,-1.644 68.604,-1.494 69.012,-1.494L70.524,-1.494C71.52,-1.494 72.018,-1.998 72.018,-3.006L73.512,-3.006C73.284,-1.002 72.288,0 70.524,0L67.518,0C66.702,0 65.997,-0.294 65.403,-0.882C64.809,-1.47 64.512,-2.178 64.512,-3.006L64.512,-7.506C64.512,-8.322 64.809,-9.024 65.403,-9.612C65.997,-10.2 66.702,-10.494 67.518,-10.494L70.524,-10.494C71.34,-10.494 72.042,-10.2 72.63,-9.612C73.218,-9.024 73.512,-8.322 73.512,-7.506L73.512,-4.5ZM67.518,-5.994L70.524,-5.994L70.524,-7.506C70.524,-7.914 70.377,-8.265 70.083,-8.559C69.789,-8.853 69.432,-9 69.012,-9C68.604,-9 68.253,-8.853 67.959,-8.559C67.665,-8.265 67.518,-7.914 67.518,-7.506L67.518,-5.994Z" style="fill:white;fill-rule:nonzero;"/>
                    <rect x="76.518" y="-13.5" width="3.006" height="13.5" style="fill:white;fill-rule:nonzero;"/>
                    <path d="M91.512,-4.5L85.518,-4.5L85.518,-3.006C85.518,-2.598 85.665,-2.244 85.959,-1.944C86.253,-1.644 86.604,-1.494 87.012,-1.494L88.524,-1.494C89.52,-1.494 90.018,-1.998 90.018,-3.006L91.512,-3.006C91.284,-1.002 90.288,0 88.524,0L85.518,0C84.702,0 83.997,-0.294 83.403,-0.882C82.809,-1.47 82.512,-2.178 82.512,-3.006L82.512,-7.506C82.512,-8.322 82.809,-9.024 83.403,-9.612C83.997,-10.2 84.702,-10.494 85.518,-10.494L88.524,-10.494C89.34,-10.494 90.042,-10.2 90.63,-9.612C91.218,-9.024 91.512,-8.322 91.512,-7.506L91.512,-4.5ZM85.518,-5.994L88.524,-5.994L88.524,-7.506C88.524,-7.914 88.377,-8.265 88.083,-8.559C87.789,-8.853 87.432,-9 87.012,-9C86.604,-9 86.253,-8.853 85.959,-8.559C85.665,-8.265 85.518,-7.914 85.518,-7.506L85.518,-5.994Z" style="fill:white;fill-rule:nonzero;"/>
                    <path d="M100.53,-5.994L100.53,-7.506C100.53,-7.914 100.383,-8.265 100.089,-8.559C99.795,-8.853 99.438,-9 99.018,-9L97.524,-9C96.636,-9 96.138,-8.502 96.03,-7.506L94.518,-7.506C94.758,-9.498 95.76,-10.494 97.524,-10.494L100.53,-10.494C101.346,-10.494 102.048,-10.2 102.636,-9.612C103.224,-9.024 103.518,-8.322 103.518,-7.506L103.518,0L100.53,0L100.53,-1.494C100.41,-0.498 99.906,0 99.018,0L97.524,0C96.708,0 96.003,-0.294 95.409,-0.882C94.815,-1.47 94.518,-2.178 94.518,-3.006C94.518,-3.822 94.815,-4.524 95.409,-5.112C96.003,-5.7 96.708,-5.994 97.524,-5.994L100.53,-5.994ZM100.53,-4.5L99.018,-4.5C98.61,-4.5 98.259,-4.353 97.965,-4.059C97.671,-3.765 97.524,-3.414 97.524,-3.006C97.524,-2.598 97.671,-2.244 97.965,-1.944C98.259,-1.644 98.61,-1.494 99.018,-1.494C99.438,-1.494 99.795,-1.644 100.089,-1.944C100.383,-2.244 100.53,-2.598 100.53,-3.006L100.53,-4.5Z" style="fill:white;fill-rule:nonzero;"/>
                    <path d="M114.03,-7.506L112.536,-7.506C112.404,-8.502 111.93,-9 111.114,-9C110.586,-9 110.19,-8.895 109.926,-8.685C109.662,-8.475 109.53,-8.166 109.53,-7.758C109.53,-7.326 110.256,-6.72 111.708,-5.94C112.896,-5.304 113.58,-4.776 113.76,-4.356C113.94,-3.936 114.03,-3.486 114.03,-3.006C114.03,-2.178 113.736,-1.47 113.148,-0.882C112.56,-0.294 111.852,0 111.024,0L109.53,0C107.526,0 106.524,-1.002 106.524,-3.006L108.036,-3.006C108.156,-1.998 108.624,-1.494 109.44,-1.494C109.98,-1.494 110.382,-1.599 110.646,-1.809C110.91,-2.019 111.042,-2.334 111.042,-2.754C111.042,-3.174 110.316,-3.774 108.864,-4.554C107.676,-5.19 106.989,-5.718 106.803,-6.138C106.617,-6.558 106.524,-7.008 106.524,-7.488C106.524,-8.316 106.821,-9.024 107.415,-9.612C108.009,-10.2 108.714,-10.494 109.53,-10.494L111.024,-10.494C112.908,-10.494 113.91,-9.498 114.03,-7.506Z" style="fill:white;fill-rule:nonzero;"/>
                    <path d="M126.018,-4.5L120.024,-4.5L120.024,-3.006C120.024,-2.598 120.171,-2.244 120.465,-1.944C120.759,-1.644 121.11,-1.494 121.518,-1.494L123.03,-1.494C124.026,-1.494 124.524,-1.998 124.524,-3.006L126.018,-3.006C125.79,-1.002 124.794,0 123.03,0L120.024,0C119.208,0 118.503,-0.294 117.909,-0.882C117.315,-1.47 117.018,-2.178 117.018,-3.006L117.018,-7.506C117.018,-8.322 117.315,-9.024 117.909,-9.612C118.503,-10.2 119.208,-10.494 120.024,-10.494L123.03,-10.494C123.846,-10.494 124.548,-10.2 125.136,-9.612C125.724,-9.024 126.018,-8.322 126.018,-7.506L126.018,-4.5ZM120.024,-5.994L123.03,-5.994L123.03,-7.506C123.03,-7.914 122.883,-8.265 122.589,-8.559C122.295,-8.853 121.938,-9 121.518,-9C121.11,-9 120.759,-8.853 120.465,-8.559C120.171,-8.265 120.024,-7.914 120.024,-7.506L120.024,-5.994Z" style="fill:white;fill-rule:nonzero;"/>
                    <path d="M138.024,0L135.036,0L135.036,-1.494C134.916,-0.498 134.412,0 133.524,0L132.03,0C131.214,0 130.509,-0.294 129.915,-0.882C129.321,-1.47 129.024,-2.178 129.024,-3.006L129.024,-7.506C129.024,-8.322 129.321,-9.024 129.915,-9.612C130.509,-10.2 131.214,-10.494 132.03,-10.494L135.036,-10.494L135.036,-13.5L138.024,-13.5L138.024,0ZM135.036,-9L133.524,-9C133.116,-9 132.765,-8.853 132.471,-8.559C132.177,-8.265 132.03,-7.914 132.03,-7.506L132.03,-3.006C132.03,-2.598 132.177,-2.244 132.471,-1.944C132.765,-1.644 133.116,-1.494 133.524,-1.494C133.944,-1.494 134.301,-1.644 134.595,-1.944C134.889,-2.244 135.036,-2.598 135.036,-3.006L135.036,-9Z" style="fill:white;fill-rule:nonzero;"/>
                    <path d="M145.53,-10.494L148.536,-10.494L148.536,-9C148.536,-9.504 148.662,-9.879 148.914,-10.125C149.166,-10.371 149.538,-10.494 150.03,-10.494L151.542,-10.494C152.358,-10.494 153.06,-10.2 153.648,-9.612C154.236,-9.024 154.53,-8.322 154.53,-7.506L154.53,-3.006C154.53,-2.178 154.236,-1.47 153.648,-0.882C153.06,-0.294 152.358,0 151.542,0L148.536,0L148.536,3.006L145.53,3.006L145.53,-10.494ZM148.536,-1.494L150.03,-1.494C150.45,-1.494 150.807,-1.641 151.101,-1.935C151.395,-2.229 151.542,-2.586 151.542,-3.006L151.542,-7.506C151.542,-7.914 151.395,-8.265 151.101,-8.559C150.807,-8.853 150.45,-9 150.03,-9C149.622,-9 149.271,-8.853 148.977,-8.559C148.683,-8.265 148.536,-7.914 148.536,-7.506L148.536,-1.494Z" style="fill:white;fill-rule:nonzero;"/>
                    <path d="M160.542,0L157.536,0L157.536,-10.494L160.542,-10.494L160.542,-7.506C160.662,-8.502 160.971,-9.249 161.469,-9.747C161.967,-10.245 162.66,-10.494 163.548,-10.494L165.042,-10.494L165.042,-7.506L162.036,-7.506C161.628,-7.506 161.277,-7.359 160.983,-7.065C160.689,-6.771 160.542,-6.414 160.542,-5.994L160.542,0Z" style="fill:white;fill-rule:nonzero;"/>
                    <path d="M169.542,-10.494L172.548,-10.494C173.364,-10.494 174.066,-10.2 174.654,-9.612C175.242,-9.024 175.536,-8.322 175.536,-7.506L175.536,-3.006C175.536,-2.19 175.242,-1.485 174.654,-0.891C174.066,-0.297 173.364,0 172.548,0L169.542,0C168.726,0 168.021,-0.294 167.427,-0.882C166.833,-1.47 166.536,-2.178 166.536,-3.006L166.536,-7.506C166.536,-8.322 166.833,-9.024 167.427,-9.612C168.021,-10.2 168.726,-10.494 169.542,-10.494ZM169.542,-7.506L169.542,-3.006C169.542,-2.598 169.689,-2.244 169.983,-1.944C170.277,-1.644 170.628,-1.494 171.036,-1.494C171.456,-1.494 171.813,-1.644 172.107,-1.944C172.401,-2.244 172.548,-2.598 172.548,-3.006L172.548,-7.506C172.548,-7.914 172.401,-8.265 172.107,-8.559C171.813,-8.853 171.456,-9 171.036,-9C170.628,-9 170.277,-8.853 169.983,-8.559C169.689,-8.265 169.542,-7.914 169.542,-7.506Z" style="fill:white;fill-rule:nonzero;"/>
                    <path d="M181.548,-12.006L181.548,-13.5L184.554,-13.5L184.554,-12.006L181.548,-12.006ZM181.548,-10.494L184.554,-10.494L184.554,0C184.554,0.816 184.257,1.521 183.663,2.115C183.069,2.709 182.364,3.006 181.548,3.006L180.054,3.006C178.278,3.006 177.276,2.004 177.048,0L178.542,0C178.638,0.996 179.142,1.494 180.054,1.494C180.462,1.494 180.813,1.347 181.107,1.053C181.401,0.759 181.548,0.408 181.548,0L181.548,-10.494Z" style="fill:white;fill-rule:nonzero;"/>
                    <path d="M196.542,-4.5L190.548,-4.5L190.548,-3.006C190.548,-2.598 190.695,-2.244 190.989,-1.944C191.283,-1.644 191.634,-1.494 192.042,-1.494L193.554,-1.494C194.55,-1.494 195.048,-1.998 195.048,-3.006L196.542,-3.006C196.314,-1.002 195.318,0 193.554,0L190.548,0C189.732,0 189.027,-0.294 188.433,-0.882C187.839,-1.47 187.542,-2.178 187.542,-3.006L187.542,-7.506C187.542,-8.322 187.839,-9.024 188.433,-9.612C189.027,-10.2 189.732,-10.494 190.548,-10.494L193.554,-10.494C194.37,-10.494 195.072,-10.2 195.66,-9.612C196.248,-9.024 196.542,-8.322 196.542,-7.506L196.542,-4.5ZM190.548,-5.994L193.554,-5.994L193.554,-7.506C193.554,-7.914 193.407,-8.265 193.113,-8.559C192.819,-8.853 192.462,-9 192.042,-9C191.634,-9 191.283,-8.853 190.989,-8.559C190.695,-8.265 190.548,-7.914 190.548,-7.506L190.548,-5.994Z" style="fill:white;fill-rule:nonzero;"/>
                    <path d="M207.054,-7.506L205.56,-7.506C205.44,-8.502 204.936,-9 204.048,-9C203.64,-9 203.289,-8.853 202.995,-8.559C202.701,-8.265 202.554,-7.914 202.554,-7.506L202.554,-3.006C202.554,-2.598 202.701,-2.244 202.995,-1.944C203.289,-1.644 203.64,-1.494 204.048,-1.494C204.936,-1.494 205.44,-1.998 205.56,-3.006L207.054,-3.006C206.934,-1.002 205.932,0 204.048,0L202.554,0C201.738,0 201.033,-0.294 200.439,-0.882C199.845,-1.47 199.548,-2.178 199.548,-3.006L199.548,-7.506C199.548,-8.322 199.845,-9.024 200.439,-9.612C201.033,-10.2 201.738,-10.494 202.554,-10.494L204.048,-10.494C205.944,-10.494 206.946,-9.498 207.054,-7.506Z" style="fill:white;fill-rule:nonzero;"/>
                    <path d="M211.554,-13.5L214.542,-13.5L214.542,-10.494L216.054,-10.494L216.054,-9L214.542,-9L214.542,-3.006C214.542,-2.514 214.704,-2.139 215.028,-1.881C215.352,-1.623 215.646,-1.494 215.91,-1.494L216.054,-1.494L216.054,0L214.542,0C213.726,0 213.024,-0.294 212.436,-0.882C211.848,-1.47 211.554,-2.178 211.554,-3.006L211.554,-9L210.042,-9L210.042,-10.494L211.554,-10.494L211.554,-13.5Z" style="fill:white;fill-rule:nonzero;"/>
                    <path d="M226.548,-7.506L225.054,-7.506C224.922,-8.502 224.448,-9 223.632,-9C223.104,-9 222.708,-8.895 222.444,-8.685C222.18,-8.475 222.048,-8.166 222.048,-7.758C222.048,-7.326 222.774,-6.72 224.226,-5.94C225.414,-5.304 226.098,-4.776 226.278,-4.356C226.458,-3.936 226.548,-3.486 226.548,-3.006C226.548,-2.178 226.254,-1.47 225.666,-0.882C225.078,-0.294 224.37,0 223.542,0L222.048,0C220.044,0 219.042,-1.002 219.042,-3.006L220.554,-3.006C220.674,-1.998 221.142,-1.494 221.958,-1.494C222.498,-1.494 222.9,-1.599 223.164,-1.809C223.428,-2.019 223.56,-2.334 223.56,-2.754C223.56,-3.174 222.834,-3.774 221.382,-4.554C220.194,-5.19 219.507,-5.718 219.321,-6.138C219.135,-6.558 219.042,-7.008 219.042,-7.488C219.042,-8.316 219.339,-9.024 219.933,-9.612C220.527,-10.2 221.232,-10.494 222.048,-10.494L223.542,-10.494C225.426,-10.494 226.428,-9.498 226.548,-7.506Z" style="fill:white;fill-rule:nonzero;"/>
                    <path d="M241.236,-6.75L235.242,-1.494L232.992,-1.494L238.986,-6.75L232.992,-12.006L235.242,-12.006L241.236,-6.75Z" style="fill:white;fill-rule:nonzero;"/>
                    <path d="M250.236,-6.75L244.242,-1.494L241.992,-1.494L247.986,-6.75L241.992,-12.006L244.242,-12.006L250.236,-6.75Z" style="fill:white;fill-rule:nonzero;"/>
                </g>
            </g>
        </g>
    </g>
</svg>
