<?xml version="1.0" encoding="UTF-8" standalone="no"?>
<!DOCTYPE svg PUBLIC "-//W3C//DTD SVG 1.1//EN" "http://www.w3.org/Graphics/SVG/1.1/DTD/svg11.dtd">
<svg width="100%" height="100%" viewBox="0 0 316 61" version="1.1" xmlns="http://www.w3.org/2000/svg" xmlns:xlink="http://www.w3.org/1999/xlink" xml:space="preserve" style="fill-rule:evenodd;clip-rule:evenodd;stroke-linejoin:round;stroke-miterlimit:1.41421;">
    <g transform="matrix(1,0,0,1,-19.9797,-16.2367)">
        <g transform="matrix(1,0,0,1,-41.8091,-7.22738)">
            <path d="M377.789,84.464L61.789,84.464L61.789,23.464L377.789,23.464L377.789,84.464ZM62.789,24.464L62.789,83.464L376.789,83.464L376.789,24.464L62.789,24.464Z" style="fill:white;"/>
        </g>
        <g transform="matrix(1,0,0,1,90.3826,55.3735)">
            <g>
                <g>
                    <path d="M1.494,-13.5L4.5,-13.5L4.5,-1.494L5.994,-1.494C6.414,-1.494 6.771,-1.644 7.065,-1.944C7.359,-2.244 7.506,-2.598 7.506,-3.006L7.506,-13.5L10.494,-13.5L10.494,-1.494L12.006,-1.494C12.414,-1.494 12.765,-1.644 13.059,-1.944C13.353,-2.244 13.5,-2.598 13.5,-3.006L13.5,-13.5L16.506,-13.5L16.506,-5.13C16.506,-3.726 16.005,-2.52 15.003,-1.512C14.001,-0.504 12.792,0 11.376,0L7.506,0L7.506,-0.468C6.93,-0.156 6.222,0 5.382,0L1.494,0L1.494,-13.5Z" style="fill:white;fill-rule:nonzero;"/>
                    <path d="M22.5,0L19.494,0L19.494,-10.494L22.5,-10.494L22.5,-7.506C22.62,-8.502 22.929,-9.249 23.427,-9.747C23.925,-10.245 24.618,-10.494 25.506,-10.494L27,-10.494L27,-7.506L23.994,-7.506C23.586,-7.506 23.235,-7.359 22.941,-7.065C22.647,-6.771 22.5,-6.414 22.5,-5.994L22.5,0Z" style="fill:white;fill-rule:nonzero;"/>
                    <path d="M28.494,-12.006L28.494,-13.5L31.5,-13.5L31.5,-12.006L28.494,-12.006ZM28.494,0L28.494,-10.494L31.5,-10.494L31.5,0L28.494,0Z" style="fill:white;fill-rule:nonzero;"/>
                    <path d="M36,-13.5L38.988,-13.5L38.988,-10.494L40.5,-10.494L40.5,-9L38.988,-9L38.988,-3.006C38.988,-2.514 39.15,-2.139 39.474,-1.881C39.798,-1.623 40.092,-1.494 40.356,-1.494L40.5,-1.494L40.5,0L38.988,0C38.172,0 37.47,-0.294 36.882,-0.882C36.294,-1.47 36,-2.178 36,-3.006L36,-9L34.488,-9L34.488,-10.494L36,-10.494L36,-13.5Z" style="fill:white;fill-rule:nonzero;"/>
                    <path d="M52.488,-4.5L46.494,-4.5L46.494,-3.006C46.494,-2.598 46.641,-2.244 46.935,-1.944C47.229,-1.644 47.58,-1.494 47.988,-1.494L49.5,-1.494C50.496,-1.494 50.994,-1.998 50.994,-3.006L52.488,-3.006C52.26,-1.002 51.264,0 49.5,0L46.494,0C45.678,0 44.973,-0.294 44.379,-0.882C43.785,-1.47 43.488,-2.178 43.488,-3.006L43.488,-7.506C43.488,-8.322 43.785,-9.024 44.379,-9.612C44.973,-10.2 45.678,-10.494 46.494,-10.494L49.5,-10.494C50.316,-10.494 51.018,-10.2 51.606,-9.612C52.194,-9.024 52.488,-8.322 52.488,-7.506L52.488,-4.5ZM46.494,-5.994L49.5,-5.994L49.5,-7.506C49.5,-7.914 49.353,-8.265 49.059,-8.559C48.765,-8.853 48.408,-9 47.988,-9C47.58,-9 47.229,-8.853 46.935,-8.559C46.641,-8.265 46.494,-7.914 46.494,-7.506L46.494,-5.994Z" style="fill:white;fill-rule:nonzero;"/>
                    <path d="M66.006,-5.994L66.006,-7.506C66.006,-7.914 65.859,-8.265 65.565,-8.559C65.271,-8.853 64.914,-9 64.494,-9L63,-9C62.112,-9 61.614,-8.502 61.506,-7.506L59.994,-7.506C60.234,-9.498 61.236,-10.494 63,-10.494L66.006,-10.494C66.822,-10.494 67.524,-10.2 68.112,-9.612C68.7,-9.024 68.994,-8.322 68.994,-7.506L68.994,0L66.006,0L66.006,-1.494C65.886,-0.498 65.382,0 64.494,0L63,0C62.184,0 61.479,-0.294 60.885,-0.882C60.291,-1.47 59.994,-2.178 59.994,-3.006C59.994,-3.822 60.291,-4.524 60.885,-5.112C61.479,-5.7 62.184,-5.994 63,-5.994L66.006,-5.994ZM66.006,-4.5L64.494,-4.5C64.086,-4.5 63.735,-4.353 63.441,-4.059C63.147,-3.765 63,-3.414 63,-3.006C63,-2.598 63.147,-2.244 63.441,-1.944C63.735,-1.644 64.086,-1.494 64.494,-1.494C64.914,-1.494 65.271,-1.644 65.565,-1.944C65.859,-2.244 66.006,-2.598 66.006,-3.006L66.006,-4.5Z" style="fill:white;fill-rule:nonzero;"/>
                    <path d="M72,0L72,-10.494L75.006,-10.494L75.006,-9C75.066,-9.504 75.222,-9.879 75.474,-10.125C75.726,-10.371 76.068,-10.494 76.5,-10.494L78.012,-10.494C78.828,-10.494 79.53,-10.2 80.118,-9.612C80.706,-9.024 81,-8.322 81,-7.506L81,0L78.012,0L78.012,-7.506C78.012,-7.914 77.865,-8.265 77.571,-8.559C77.277,-8.853 76.92,-9 76.5,-9C76.092,-9 75.741,-8.853 75.447,-8.559C75.153,-8.265 75.006,-7.914 75.006,-7.506L75.006,0L72,0Z" style="fill:white;fill-rule:nonzero;"/>
                    <path d="M97.506,-4.5L91.512,-4.5L91.512,-3.006C91.512,-2.598 91.659,-2.244 91.953,-1.944C92.247,-1.644 92.598,-1.494 93.006,-1.494L94.518,-1.494C95.514,-1.494 96.012,-1.998 96.012,-3.006L97.506,-3.006C97.278,-1.002 96.282,0 94.518,0L91.512,0C90.696,0 89.991,-0.294 89.397,-0.882C88.803,-1.47 88.506,-2.178 88.506,-3.006L88.506,-7.506C88.506,-8.322 88.803,-9.024 89.397,-9.612C89.991,-10.2 90.696,-10.494 91.512,-10.494L94.518,-10.494C95.334,-10.494 96.036,-10.2 96.624,-9.612C97.212,-9.024 97.506,-8.322 97.506,-7.506L97.506,-4.5ZM91.512,-5.994L94.518,-5.994L94.518,-7.506C94.518,-7.914 94.371,-8.265 94.077,-8.559C93.783,-8.853 93.426,-9 93.006,-9C92.598,-9 92.247,-8.853 91.953,-8.559C91.659,-8.265 91.512,-7.914 91.512,-7.506L91.512,-5.994Z" style="fill:white;fill-rule:nonzero;"/>
                    <rect x="100.512" y="-5.994" width="7.506" height="1.494" style="fill:white;fill-rule:nonzero;"/>
                    <path d="M120.006,0L117.018,0L117.018,-7.506C117.018,-7.914 116.871,-8.265 116.577,-8.559C116.283,-8.853 115.926,-9 115.506,-9C115.098,-9 114.747,-8.853 114.453,-8.559C114.159,-8.265 114.012,-7.914 114.012,-7.506L114.012,0L111.006,0L111.006,-10.494L114.012,-10.494L114.012,-9C114.072,-9.504 114.228,-9.879 114.48,-10.125C114.732,-10.371 115.074,-10.494 115.506,-10.494L117.018,-10.494C118.038,-10.494 118.788,-10.14 119.268,-9.432C119.508,-9.792 119.814,-10.059 120.186,-10.233C120.558,-10.407 121.002,-10.494 121.518,-10.494L123.012,-10.494C123.828,-10.494 124.533,-10.2 125.127,-9.612C125.721,-9.024 126.018,-8.322 126.018,-7.506L126.018,0L123.012,0L123.012,-7.506C123.012,-7.902 122.865,-8.25 122.571,-8.55C122.277,-8.85 121.926,-9 121.518,-9C121.11,-9 120.756,-8.853 120.456,-8.559C120.156,-8.265 120.006,-7.914 120.006,-7.506L120.006,0Z" style="fill:white;fill-rule:nonzero;"/>
                    <path d="M135.018,-5.994L135.018,-7.506C135.018,-7.914 134.871,-8.265 134.577,-8.559C134.283,-8.853 133.926,-9 133.506,-9L132.012,-9C131.124,-9 130.626,-8.502 130.518,-7.506L129.006,-7.506C129.246,-9.498 130.248,-10.494 132.012,-10.494L135.018,-10.494C135.834,-10.494 136.536,-10.2 137.124,-9.612C137.712,-9.024 138.006,-8.322 138.006,-7.506L138.006,0L135.018,0L135.018,-1.494C134.898,-0.498 134.394,0 133.506,0L132.012,0C131.196,0 130.491,-0.294 129.897,-0.882C129.303,-1.47 129.006,-2.178 129.006,-3.006C129.006,-3.822 129.303,-4.524 129.897,-5.112C130.491,-5.7 131.196,-5.994 132.012,-5.994L135.018,-5.994ZM135.018,-4.5L133.506,-4.5C133.098,-4.5 132.747,-4.353 132.453,-4.059C132.159,-3.765 132.012,-3.414 132.012,-3.006C132.012,-2.598 132.159,-2.244 132.453,-1.944C132.747,-1.644 133.098,-1.494 133.506,-1.494C133.926,-1.494 134.283,-1.644 134.577,-1.944C134.871,-2.244 135.018,-2.598 135.018,-3.006L135.018,-4.5Z" style="fill:white;fill-rule:nonzero;"/>
                    <path d="M141.012,-12.006L141.012,-13.5L144.018,-13.5L144.018,-12.006L141.012,-12.006ZM141.012,0L141.012,-10.494L144.018,-10.494L144.018,0L141.012,0Z" style="fill:white;fill-rule:nonzero;"/>
                    <rect x="147.006" y="-13.5" width="3.006" height="13.5" style="fill:white;fill-rule:nonzero;"/>
                    <path d="M164.7,-6.75L158.706,-1.494L156.456,-1.494L162.45,-6.75L156.456,-12.006L158.706,-12.006L164.7,-6.75Z" style="fill:white;fill-rule:nonzero;"/>
                    <path d="M173.7,-6.75L167.706,-1.494L165.456,-1.494L171.45,-6.75L165.456,-12.006L167.706,-12.006L173.7,-6.75Z" style="fill:white;fill-rule:nonzero;"/>
                </g>
            </g>
        </g>
    </g>
</svg>
