<?xml version="1.0" encoding="UTF-8" standalone="no"?>
<!DOCTYPE svg PUBLIC "-//W3C//DTD SVG 1.1//EN" "http://www.w3.org/Graphics/SVG/1.1/DTD/svg11.dtd">
<svg width="100%" height="100%" viewBox="0 0 316 61" version="1.1" xmlns="http://www.w3.org/2000/svg" xmlns:xlink="http://www.w3.org/1999/xlink" xml:space="preserve" style="fill-rule:evenodd;clip-rule:evenodd;stroke-linejoin:round;stroke-miterlimit:1.41421;">
    <g transform="matrix(1,0,0,1,-19.9797,-16.2367)">
        <g transform="matrix(1,0,0,1,-41.8091,-7.22738)">
            <path d="M377.789,84.464L61.789,84.464L61.789,23.464L377.789,23.464L377.789,84.464ZM62.789,24.464L62.789,83.464L376.789,83.464L376.789,24.464L62.789,24.464Z" style="fill:white;"/>
        </g>
        <g transform="matrix(1,0,0,1,114.377,55.3735)">
            <g>
                <g>
                    <path d="M10.494,-3.006C10.374,-1.002 9.378,0 7.506,0L4.5,0C3.684,0 2.979,-0.294 2.385,-0.882C1.791,-1.47 1.494,-2.178 1.494,-3.006L1.494,-10.494C1.494,-11.31 1.785,-12.015 2.367,-12.609C2.949,-13.203 3.66,-13.5 4.5,-13.5L7.506,-13.5C9.39,-13.5 10.386,-12.498 10.494,-10.494L9,-10.494C8.88,-11.502 8.382,-12.006 7.506,-12.006L5.994,-12.006C5.586,-12.006 5.235,-11.859 4.941,-11.565C4.647,-11.271 4.5,-10.914 4.5,-10.494L4.5,-3.006C4.5,-2.598 4.647,-2.244 4.941,-1.944C5.235,-1.644 5.586,-1.494 5.994,-1.494L7.506,-1.494C8.394,-1.494 8.892,-1.998 9,-3.006L10.494,-3.006Z" style="fill:white;fill-rule:nonzero;"/>
                    <path d="M16.506,-10.494L19.512,-10.494C20.328,-10.494 21.03,-10.2 21.618,-9.612C22.206,-9.024 22.5,-8.322 22.5,-7.506L22.5,-3.006C22.5,-2.19 22.206,-1.485 21.618,-0.891C21.03,-0.297 20.328,0 19.512,0L16.506,0C15.69,0 14.985,-0.294 14.391,-0.882C13.797,-1.47 13.5,-2.178 13.5,-3.006L13.5,-7.506C13.5,-8.322 13.797,-9.024 14.391,-9.612C14.985,-10.2 15.69,-10.494 16.506,-10.494ZM16.506,-7.506L16.506,-3.006C16.506,-2.598 16.653,-2.244 16.947,-1.944C17.241,-1.644 17.592,-1.494 18,-1.494C18.42,-1.494 18.777,-1.644 19.071,-1.944C19.365,-2.244 19.512,-2.598 19.512,-3.006L19.512,-7.506C19.512,-7.914 19.365,-8.265 19.071,-8.559C18.777,-8.853 18.42,-9 18,-9C17.592,-9 17.241,-8.853 16.947,-8.559C16.653,-8.265 16.506,-7.914 16.506,-7.506Z" style="fill:white;fill-rule:nonzero;"/>
                    <path d="M25.506,0L25.506,-10.494L28.512,-10.494L28.512,-9C28.572,-9.504 28.728,-9.879 28.98,-10.125C29.232,-10.371 29.574,-10.494 30.006,-10.494L31.518,-10.494C32.334,-10.494 33.036,-10.2 33.624,-9.612C34.212,-9.024 34.506,-8.322 34.506,-7.506L34.506,0L31.518,0L31.518,-7.506C31.518,-7.914 31.371,-8.265 31.077,-8.559C30.783,-8.853 30.426,-9 30.006,-9C29.598,-9 29.247,-8.853 28.953,-8.559C28.659,-8.265 28.512,-7.914 28.512,-7.506L28.512,0L25.506,0Z" style="fill:white;fill-rule:nonzero;"/>
                    <path d="M39.024,-13.5L42.012,-13.5L42.012,-10.494L43.524,-10.494L43.524,-9L42.012,-9L42.012,-3.006C42.012,-2.514 42.174,-2.139 42.498,-1.881C42.822,-1.623 43.116,-1.494 43.38,-1.494L43.524,-1.494L43.524,0L42.012,0C41.196,0 40.494,-0.294 39.906,-0.882C39.318,-1.47 39.024,-2.178 39.024,-3.006L39.024,-9L37.512,-9L37.512,-10.494L39.024,-10.494L39.024,-13.5Z" style="fill:white;fill-rule:nonzero;"/>
                    <path d="M52.524,-5.994L52.524,-7.506C52.524,-7.914 52.377,-8.265 52.083,-8.559C51.789,-8.853 51.432,-9 51.012,-9L49.518,-9C48.63,-9 48.132,-8.502 48.024,-7.506L46.512,-7.506C46.752,-9.498 47.754,-10.494 49.518,-10.494L52.524,-10.494C53.34,-10.494 54.042,-10.2 54.63,-9.612C55.218,-9.024 55.512,-8.322 55.512,-7.506L55.512,0L52.524,0L52.524,-1.494C52.404,-0.498 51.9,0 51.012,0L49.518,0C48.702,0 47.997,-0.294 47.403,-0.882C46.809,-1.47 46.512,-2.178 46.512,-3.006C46.512,-3.822 46.809,-4.524 47.403,-5.112C47.997,-5.7 48.702,-5.994 49.518,-5.994L52.524,-5.994ZM52.524,-4.5L51.012,-4.5C50.604,-4.5 50.253,-4.353 49.959,-4.059C49.665,-3.765 49.518,-3.414 49.518,-3.006C49.518,-2.598 49.665,-2.244 49.959,-1.944C50.253,-1.644 50.604,-1.494 51.012,-1.494C51.432,-1.494 51.789,-1.644 52.083,-1.944C52.377,-2.244 52.524,-2.598 52.524,-3.006L52.524,-4.5Z" style="fill:white;fill-rule:nonzero;"/>
                    <path d="M66.024,-7.506L64.53,-7.506C64.41,-8.502 63.906,-9 63.018,-9C62.61,-9 62.259,-8.853 61.965,-8.559C61.671,-8.265 61.524,-7.914 61.524,-7.506L61.524,-3.006C61.524,-2.598 61.671,-2.244 61.965,-1.944C62.259,-1.644 62.61,-1.494 63.018,-1.494C63.906,-1.494 64.41,-1.998 64.53,-3.006L66.024,-3.006C65.904,-1.002 64.902,0 63.018,0L61.524,0C60.708,0 60.003,-0.294 59.409,-0.882C58.815,-1.47 58.518,-2.178 58.518,-3.006L58.518,-7.506C58.518,-8.322 58.815,-9.024 59.409,-9.612C60.003,-10.2 60.708,-10.494 61.524,-10.494L63.018,-10.494C64.914,-10.494 65.916,-9.498 66.024,-7.506Z" style="fill:white;fill-rule:nonzero;"/>
                    <path d="M70.524,-13.5L73.512,-13.5L73.512,-10.494L75.024,-10.494L75.024,-9L73.512,-9L73.512,-3.006C73.512,-2.514 73.674,-2.139 73.998,-1.881C74.322,-1.623 74.616,-1.494 74.88,-1.494L75.024,-1.494L75.024,0L73.512,0C72.696,0 71.994,-0.294 71.406,-0.882C70.818,-1.47 70.524,-2.178 70.524,-3.006L70.524,-9L69.012,-9L69.012,-10.494L70.524,-10.494L70.524,-13.5Z" style="fill:white;fill-rule:nonzero;"/>
                    <path d="M91.512,-10.494L91.512,0L88.524,0L88.524,-1.494C88.404,-0.498 87.9,0 87.012,0L85.518,0C84.702,0 83.997,-0.294 83.403,-0.882C82.809,-1.47 82.512,-2.178 82.512,-3.006L82.512,-10.494L85.518,-10.494L85.518,-3.006C85.518,-2.598 85.665,-2.244 85.959,-1.944C86.253,-1.644 86.604,-1.494 87.012,-1.494C87.432,-1.494 87.789,-1.644 88.083,-1.944C88.377,-2.244 88.524,-2.598 88.524,-3.006L88.524,-10.494L91.512,-10.494Z" style="fill:white;fill-rule:nonzero;"/>
                    <path d="M102.024,-7.506L100.53,-7.506C100.398,-8.502 99.924,-9 99.108,-9C98.58,-9 98.184,-8.895 97.92,-8.685C97.656,-8.475 97.524,-8.166 97.524,-7.758C97.524,-7.326 98.25,-6.72 99.702,-5.94C100.89,-5.304 101.574,-4.776 101.754,-4.356C101.934,-3.936 102.024,-3.486 102.024,-3.006C102.024,-2.178 101.73,-1.47 101.142,-0.882C100.554,-0.294 99.846,0 99.018,0L97.524,0C95.52,0 94.518,-1.002 94.518,-3.006L96.03,-3.006C96.15,-1.998 96.618,-1.494 97.434,-1.494C97.974,-1.494 98.376,-1.599 98.64,-1.809C98.904,-2.019 99.036,-2.334 99.036,-2.754C99.036,-3.174 98.31,-3.774 96.858,-4.554C95.67,-5.19 94.983,-5.718 94.797,-6.138C94.611,-6.558 94.518,-7.008 94.518,-7.488C94.518,-8.316 94.815,-9.024 95.409,-9.612C96.003,-10.2 96.708,-10.494 97.524,-10.494L99.018,-10.494C100.902,-10.494 101.904,-9.498 102.024,-7.506Z" style="fill:white;fill-rule:nonzero;"/>
                    <path d="M116.712,-6.75L110.718,-1.494L108.468,-1.494L114.462,-6.75L108.468,-12.006L110.718,-12.006L116.712,-6.75Z" style="fill:white;fill-rule:nonzero;"/>
                    <path d="M125.712,-6.75L119.718,-1.494L117.468,-1.494L123.462,-6.75L117.468,-12.006L119.718,-12.006L125.712,-6.75Z" style="fill:white;fill-rule:nonzero;"/>
                </g>
            </g>
        </g>
    </g>
</svg>
